<svg xmlns="http://www.w3.org/2000/svg" viewBox="0 0 1600 500"><defs><style type="text/css">.logo-texto{fill:#1c3c50;}.logo-quadrado{fill:#f19a67;}</style></defs><polygon class="logo-texto" points="96.8,39.8 40.6,39.8 43.9,20.4 181,20.4 177.7,39.8 121.7,39.8 90.7,216.1 65.8,216.1 "/><path class="logo-texto" d="M180.7,153.2c-0.3,2.8-0.3,5.3-0.3,7.8c0,26.1,11.1,41.6,33,41.6c15,0,27.1-7.2,37.7-22.7l18.3,9.1c-11.9,17.5-29.4,31.3-57.1,31.3c-38,0-55.4-25-55.4-58.5c0-42.4,22.7-85.9,72.6-85.9c33.5,0,48.5,21.9,48.5,51.6c0,10.8-1.4,21.6-2.5,25.8H180.7z M182.4,139.3h72.3c0.8-3.3,1.1-9.1,1.1-13.9c0-16.1-8-32.2-28.3-32.2C203.2,93.3,187.7,113.3,182.4,139.3"/><path class="logo-texto" d="M410.9,186.2c-14.7,21.9-32.1,34.1-60.7,34.1c-35.5,0-53.2-25-53.2-56.6c0-45.7,24.7-87.9,73.7-87.9c26.9,0,42.7,13,49,34.7l-19.1,8.9c-3.9-16.6-13.6-25.5-29.9-25.5c-34.1,0-49.6,33.3-49.6,67.4c0,22.2,9.1,41,31.9,41c18.3,0,31-10.8,39.9-26.3L410.9,186.2z"/><path class="logo-texto" d="M462.4,20.4h23l-14.7,84.6c7.8-15,25.2-29.1,47.1-29.1c23.8,0,34.1,14.7,34.1,34.9c0,5.3-0.8,13.3-2.5,23l-14.7,82.3h-23l13.9-79c1.4-7.2,2.2-14.1,2.2-17.5c0-15-7.5-23.3-21.1-23.3c-20.5,0-38,18.6-42.9,47.7l-12.7,72.1h-23.3L462.4,20.4z"/><path class="logo-texto" d="M644.4,145.2L753.5,20h27.4l-22.4,126.1h25.1l-3.2,18.9h-25.1l-9.4,53.1H721l9.4-53.1h-89.7L644.4,145.2zM733.7,146.1l17.4-98.9L665,146.1H733.7z"/><path class="logo-texto" d="M72,253.3h57.5c33.8,0,55.7,13.7,55.7,45.4c0,45.4-28.3,64-72.4,64H75.8l-12.6,72.7H40L72,253.3z M112.2,344.1c32.2,0,48.2-13.9,48.2-43.8c0-21.2-14.7-28.9-35.8-28.9H92.1l-12.9,72.7H112.2z"/><path class="logo-texto" d="M215,376.8c-0.3,2.6-0.3,4.9-0.3,7.2c0,24.2,10.3,38.7,30.7,38.7c13.9,0,25.3-6.7,35-21.2l17,8.5c-11.1,16.2-27.3,29.1-53.1,29.1c-35.3,0-51.5-23.2-51.5-54.4c0-39.5,21.1-80,67.5-80c31.2,0,45.1,20.4,45.1,48c0,10.1-1.3,20.1-2.3,24H215z M216.5,363.9h67.3c0.8-3.1,1-8.5,1-12.9c0-15-7.5-29.9-26.3-29.9C235.9,321.1,221.4,339.7,216.5,363.9"/><path class="logo-texto" d="M328.1,385.1c0-42.6,23.7-80.2,68-80.2c32,0,49.2,22.4,49.2,53.4c0,42.6-24,81-68.3,81C345.4,439.2,328.1,416,328.1,385.1 M422.7,359.5c0-22.2-9-37.9-28.9-37.9c-28.1,0-43,31-43,62.4c0,21.9,9.3,38.4,28.9,38.4C407.8,422.5,422.7,389.5,422.7,359.5"/><path class="logo-texto" d="M486.1,308.5H507l-3.6,23c8-14.4,23.5-26.6,42.8-26.6c27.1,0,39.7,21.4,39.7,50.6c0,51.8-29.4,83.3-60.6,83.3c-21.4,0-32.2-11.6-36.1-24.2L477.3,480h-21.4L486.1,308.5z M496.4,372.2c-1.3,6.7-1.8,15-1.8,18.8c0,15,7.2,30.4,25.8,30.4c27.3,0,42.3-29.9,42.3-62.4c0-19.1-7.2-36.4-25.8-36.4c-15.7,0-27.6,11.6-34,25.5c-2.1,4.6-3.9,10.6-5.4,18.6L496.4,372.2z"/><polygon class="logo-texto" points="634.9,258.5 657.6,258.5 623.7,440.6 600.6,440.6 "/><path class="logo-texto" d="M689.4,376.8c-0.3,2.6-0.3,4.9-0.3,7.2c0,24.2,10.3,38.7,30.7,38.7c13.9,0,25.3-6.7,35-21.2l17,8.5c-11.1,16.2-27.3,29.1-53.1,29.1c-35.3,0-51.5-23.2-51.5-54.4c0-39.5,21.1-80,67.5-80c31.2,0,45.1,20.4,45.1,48c0,10.1-1.3,20.1-2.3,24H689.4z M691,363.9h67.3c0.8-3.1,1-8.5,1-12.9c0-15-7.5-29.9-26.3-29.9C710.3,321.1,695.9,339.7,691,363.9"/><rect id="vsr01" x="860" y="20" class="logo-quadrado" width="140" height="140"/><rect id="vsr02" x="1140" y="20" class="logo-quadrado" width="140" height="141"/><rect id="vsr03" x="1420" y="20" class="logo-quadrado" width="140" height="141"/><rect id="vsr04" x="1000" y="160" class="logo-quadrado" width="141" height="140"/><rect id="vsr05" x="1140" y="300" class="logo-quadrado" width="140" height="141"/><rect id="vsr06" x="1420" y="160" class="logo-quadrado" width="140" height="140"/><rect id="vsr07" x="860" y="300" class="logo-quadrado" width="140" height="140"/><rect id="vsr08" x="1140" y="160" class="logo-quadrado" width="140" height="140"/></svg>